<?xml version="1.0" encoding="UTF-8" standalone="no"?><!DOCTYPE svg PUBLIC "-//W3C//DTD SVG 1.1//EN" "http://www.w3.org/Graphics/SVG/1.1/DTD/svg11.dtd"><svg width="100%" height="100%" viewBox="0 0 520 120" version="1.1" xmlns="http://www.w3.org/2000/svg" xmlns:xlink="http://www.w3.org/1999/xlink" xml:space="preserve" xmlns:serif="http://www.serif.com/" style="fill-rule:evenodd;clip-rule:evenodd;stroke-miterlimit:10;"><g><g><path d="M26.787,110.088c-3.645,-0.694 -7.028,-1.754 -10.19,-3.16c-3.161,-1.407 -6.101,-3.161 -8.84,-5.262l7.37,-8.204c3.202,2.522 6.746,4.422 10.612,5.682c3.867,1.261 8.055,1.901 12.586,1.901c6.101,-0 10.854,-1.024 14.216,-3.088c3.363,-2.046 5.055,-4.951 5.055,-8.715l-0,-0.055c-0,-2.667 -0.765,-4.787 -2.296,-6.34c-1.53,-1.553 -3.504,-2.722 -5.92,-3.471c-2.416,-0.749 -5.538,-1.444 -9.364,-2.083c-0.12,-0.037 -0.241,-0.055 -0.382,-0.055c-0.141,0 -0.262,-0.018 -0.383,-0.055l-0.866,-0.164c-5.638,-0.877 -10.229,-1.864 -13.773,-2.978c-3.544,-1.115 -6.565,-3.124 -9.082,-6.048c-2.517,-2.923 -3.765,-7.089 -3.765,-12.497l-0,-0.054c-0,-4.733 1.167,-8.789 3.503,-12.132c2.336,-3.344 5.759,-5.901 10.23,-7.655c4.49,-1.754 9.887,-2.631 16.19,-2.631c3.02,-0 5.98,0.292 8.9,0.895c2.92,0.603 5.799,1.48 8.639,2.667c2.839,1.17 5.638,2.65 8.377,4.44l-6.726,8.532c-3.202,-2.137 -6.403,-3.745 -9.605,-4.823c-3.182,-1.078 -6.384,-1.608 -9.605,-1.608c-5.76,0 -10.23,1.042 -13.432,3.124c-3.181,2.083 -4.792,5.043 -4.792,8.862l-0,0.054c-0,2.631 0.825,4.696 2.456,6.212c1.652,1.517 3.686,2.631 6.142,3.344c2.457,0.712 5.86,1.462 10.23,2.229c0.161,0.036 0.302,0.055 0.443,0.073c0.141,0.018 0.282,0.037 0.443,0.073c0.201,0.037 0.402,0.073 0.644,0.11c0.242,0.036 0.443,0.073 0.644,0.109c5.115,0.95 9.364,2.065 12.787,3.362c3.423,1.297 6.283,3.398 8.578,6.285c2.296,2.887 3.444,6.852 3.444,11.876l-0,0.11c-0,4.658 -1.208,8.66 -3.645,11.967c-2.436,3.325 -5.96,5.846 -10.592,7.582c-4.611,1.736 -10.209,2.613 -16.733,2.613c-4.028,0.018 -7.874,-0.329 -11.498,-1.024Z" style="fill:#ccc;fill-rule:nonzero;stroke:#000;stroke-width:2.88px;"/><path d="M32.586,48.005c1.631,-0.621 4.329,-1.406 7.712,-1.352c3.947,0.074 6.947,1.243 8.599,2.047c3.201,-5.171 6.383,-10.341 9.585,-15.512c-3.202,-1.608 -8.881,-3.928 -16.331,-4.239c-7.41,-0.31 -13.29,1.517 -16.653,2.851c2.356,5.408 4.732,10.816 7.088,16.205Z" style="fill:#5197d8;fill-rule:nonzero;stroke:#222221;stroke-width:2.88px;"/><path d="M38.707,33.718c0.907,-5.938 1.813,-11.858 2.699,-17.795c0.181,-1.225 2.134,-1.206 2.295,0.018c0.786,5.883 1.571,11.766 2.356,17.667c-0.503,0.658 -1.731,2.01 -3.423,2.138c-1.993,0.183 -3.423,-1.407 -3.927,-2.028Z" style="fill:#a7d0d2;fill-rule:nonzero;stroke:#000;stroke-width:2.88px;"/><ellipse cx="42.392" cy="15.027" rx="6.887" ry="6.248" style="fill:#a7d0d2;stroke:#000;stroke-width:2.88px;"/></g><path d="M123,66.002c-4.229,-3.417 -10.27,-5.116 -18.123,-5.116c-4.289,0 -8.417,0.512 -12.384,1.553c-3.967,1.042 -7.411,2.558 -10.371,4.568l4.934,8.313c2.074,-1.517 4.571,-2.704 7.45,-3.563c2.88,-0.859 5.8,-1.279 8.76,-1.279c4.571,0 7.974,0.932 10.229,2.777c2.256,1.864 3.363,4.458 3.363,7.82l0,0.731l-13.995,-0c-5.437,-0 -9.807,0.639 -13.089,1.918c-3.282,1.279 -5.658,3.015 -7.088,5.207c-1.45,2.193 -2.175,4.659 -2.175,7.4c0,2.795 0.826,5.316 2.457,7.527c1.651,2.229 3.987,3.965 7.008,5.207c3.02,1.243 6.544,1.864 10.571,1.864c4.833,-0 8.8,-0.786 11.881,-2.375c2.134,-1.097 3.806,-2.522 5.034,-4.239l0,5.974l11.881,0l-0,-28.575c-0,-7.07 -2.115,-12.296 -6.343,-15.712Zm-11.539,34.714c-2.456,1.279 -5.215,1.918 -8.316,1.918c-3.222,0 -5.739,-0.603 -7.551,-1.827c-1.813,-1.224 -2.719,-2.832 -2.719,-4.842c0,-1.881 0.765,-3.453 2.256,-4.713c1.51,-1.243 4.389,-1.882 8.618,-1.882l13.089,-0l-0,5.664c-1.128,2.521 -2.92,4.403 -5.377,5.682Z" style="fill:#ccc;fill-rule:nonzero;stroke:#000;stroke-width:2.88px;"/><path d="M170.22,110.947c-5.638,0 -10.652,-1.078 -15.042,-3.234c-4.39,-2.156 -7.833,-5.115 -10.31,-8.861c-2.477,-3.745 -3.725,-8.057 -3.725,-12.917c-0,-4.933 1.248,-9.263 3.725,-12.972c2.477,-3.709 5.92,-6.651 10.31,-8.825c4.39,-2.156 9.404,-3.234 15.042,-3.234c5.176,0 9.767,0.969 13.794,2.924c4.027,1.955 7.048,4.787 9.062,8.495l-9.565,5.116c-1.611,-2.247 -3.585,-3.946 -5.88,-5.079c-2.316,-1.133 -4.813,-1.681 -7.511,-1.681c-3.081,0 -5.88,0.621 -8.357,1.882c-2.477,1.242 -4.43,3.015 -5.84,5.298c-1.409,2.284 -2.114,4.988 -2.114,8.094c-0,3.106 0.705,5.81 2.114,8.131c1.41,2.32 3.363,4.092 5.84,5.353c2.477,1.242 5.276,1.863 8.357,1.863c2.678,0 5.195,-0.566 7.511,-1.681c2.315,-1.132 4.269,-2.85 5.88,-5.17l9.565,5.116c-2.014,3.654 -5.035,6.467 -9.062,8.441c-4.027,1.955 -8.639,2.941 -13.794,2.941Z" style="fill:#ccc;fill-rule:nonzero;stroke:#000;stroke-width:2.88px;"/><path d="M242.713,66.002c-4.229,-3.417 -10.27,-5.116 -18.123,-5.116c-4.29,0 -8.418,0.512 -12.385,1.553c-3.966,1.042 -7.41,2.558 -10.37,4.568l4.934,8.313c2.074,-1.517 4.571,-2.704 7.45,-3.563c2.88,-0.859 5.8,-1.279 8.76,-1.279c4.571,0 7.974,0.932 10.229,2.777c2.255,1.864 3.363,4.458 3.363,7.82l-0,0.731l-13.995,-0c-5.437,-0 -9.807,0.639 -13.089,1.918c-3.282,1.279 -5.658,3.015 -7.088,5.207c-1.45,2.193 -2.175,4.659 -2.175,7.4c0,2.795 0.826,5.316 2.457,7.527c1.651,2.229 3.987,3.965 7.007,5.207c3.021,1.243 6.545,1.864 10.572,1.864c4.833,-0 8.8,-0.786 11.881,-2.375c2.134,-1.097 3.806,-2.522 5.034,-4.239l0,5.974l11.881,0l-0,-28.575c-0,-7.07 -2.115,-12.296 -6.343,-15.712Zm-11.539,34.714c-2.456,1.279 -5.215,1.918 -8.296,1.918c-3.222,0 -5.739,-0.603 -7.551,-1.827c-1.813,-1.224 -2.719,-2.832 -2.719,-4.842c0,-1.881 0.765,-3.453 2.256,-4.713c1.51,-1.243 4.389,-1.882 8.618,-1.882l13.089,-0l-0,5.664c-1.148,2.521 -2.94,4.403 -5.397,5.682Z" style="fill:#ccc;fill-rule:nonzero;stroke:#000;stroke-width:2.88px;"/><path d="M298.995,111.221c-5.437,0 -10.431,-0.804 -15.002,-2.43c-4.571,-1.608 -8.538,-3.91 -11.921,-6.888c-3.383,-2.978 -6.021,-6.449 -7.914,-10.414c-1.893,-3.965 -2.819,-8.349 -2.819,-13.155c0,-4.805 0.947,-9.19 2.819,-13.154c1.873,-3.965 4.531,-7.436 7.954,-10.414c3.423,-2.979 7.411,-5.281 11.982,-6.888c4.571,-1.608 9.565,-2.43 15.001,-2.43c5.78,-0 11.035,0.895 15.808,2.685c4.772,1.791 8.8,4.458 12.082,8.003l-8.458,7.217c-2.617,-2.503 -5.497,-4.367 -8.658,-5.628c-3.162,-1.242 -6.545,-1.863 -10.169,-1.863c-3.685,-0 -7.068,0.548 -10.129,1.644c-3.061,1.096 -5.699,2.649 -7.954,4.659c-2.256,2.01 -4.007,4.385 -5.276,7.126c-1.269,2.74 -1.913,5.755 -1.913,9.043c-0,3.289 0.644,6.304 1.913,9.044c1.269,2.741 3.041,5.116 5.276,7.126c2.255,2.009 4.893,3.562 7.954,4.659c3.061,1.096 6.423,1.644 10.129,1.644c3.624,0 7.007,-0.621 10.169,-1.864c3.161,-1.242 6.041,-3.16 8.658,-5.7l8.458,7.217c-3.282,3.526 -7.31,6.212 -12.082,8.039c-4.773,1.809 -10.069,2.722 -15.908,2.722Z" style="fill:#2c64e3;fill-rule:nonzero;stroke:#2c64e3;stroke-width:3.26px;"/><path d="M344.705,53.487c-2.356,-0 -4.269,-0.676 -5.799,-2.01c-1.51,-1.334 -2.256,-2.978 -2.256,-4.933c0,-1.827 0.766,-3.417 2.256,-4.75c1.51,-1.334 3.443,-2.01 5.799,-2.01c2.356,-0 4.269,0.621 5.8,1.863c1.51,1.243 2.255,2.851 2.255,4.787c-0,1.955 -0.745,3.618 -2.215,4.988c-1.49,1.37 -3.423,2.065 -5.84,2.065Zm-6.242,56.821l-0,-48.782l12.485,-0l-0,48.782l-12.485,-0Z" style="fill:#2c64e3;fill-rule:nonzero;stroke:#2c64e3;stroke-width:3.26px;"/><path d="M396.154,99.528c-1.812,1.334 -4.087,2.01 -6.846,2.01c-2.416,-0 -4.289,-0.64 -5.638,-1.919c-1.349,-1.278 -2.014,-3.069 -2.014,-5.389l0,-23.204l14.498,0l0,-9.135l-14.498,-0l0,-11.145l-12.485,0l0,11.145l-8.86,-0l0,9.135l8.86,0l0,23.569c0,5.353 1.611,9.428 4.833,12.186c3.222,2.778 7.793,4.148 13.693,4.148c2.215,-0 4.39,-0.274 6.544,-0.822c2.155,-0.548 3.988,-1.371 5.538,-2.467l-3.625,-8.112Z" style="fill:#2c64e3;fill-rule:nonzero;stroke:#2c64e3;stroke-width:3.26px;"/><path d="M448.812,66.002c-4.229,-3.417 -10.27,-5.116 -18.123,-5.116c-4.289,0 -8.417,0.512 -12.384,1.553c-3.967,1.042 -7.41,2.558 -10.371,4.568l4.934,8.313c2.074,-1.517 4.571,-2.704 7.451,-3.563c2.879,-0.859 5.799,-1.279 8.759,-1.279c4.571,0 7.974,0.932 10.229,2.777c2.256,1.864 3.363,4.458 3.363,7.82l0,0.731l-13.995,-0c-5.437,-0 -9.806,0.639 -13.089,1.918c-3.282,1.279 -5.658,3.015 -7.088,5.207c-1.45,2.193 -2.174,4.659 -2.174,7.4c-0,2.795 0.825,5.316 2.456,7.527c1.651,2.229 3.987,3.965 7.008,5.207c3.02,1.243 6.544,1.864 10.572,1.864c4.832,-0 8.799,-0.786 11.88,-2.375c2.135,-1.097 3.806,-2.522 5.034,-4.239l0,5.974l11.881,0l0,-28.575c0,-7.07 -2.114,-12.296 -6.343,-15.712Zm-11.538,34.714c-2.457,1.279 -5.216,1.918 -8.297,1.918c-3.222,0 -5.739,-0.603 -7.551,-1.827c-1.812,-1.224 -2.718,-2.832 -2.718,-4.842c-0,-1.881 0.765,-3.453 2.255,-4.713c1.51,-1.243 4.39,-1.882 8.618,-1.882l13.089,-0l0,5.664c-1.147,2.521 -2.94,4.403 -5.396,5.682Z" style="fill:#2c64e3;fill-rule:nonzero;stroke:#2c64e3;stroke-width:3.26px;"/><path d="M487.978,110.947c-4.571,0 -8.9,-0.53 -12.988,-1.608c-4.088,-1.059 -7.39,-2.357 -9.867,-3.873l4.833,-8.678c2.416,1.406 5.296,2.539 8.658,3.416c3.363,0.877 6.746,1.334 10.169,1.334c3.887,-0 6.726,-0.475 8.518,-1.425c1.772,-0.95 2.658,-2.229 2.658,-3.874c0,-1.333 -0.604,-2.356 -1.812,-3.051c-1.208,-0.694 -2.779,-1.224 -4.732,-1.608c-1.953,-0.383 -4.108,-0.694 -6.484,-1.004c-2.376,-0.311 -4.773,-0.713 -7.149,-1.225c-2.376,-0.511 -4.551,-1.278 -6.504,-2.283c-1.953,-1.005 -3.524,-2.357 -4.732,-4.075c-1.208,-1.699 -1.812,-3.983 -1.812,-6.851c-0,-3.051 0.966,-5.7 2.92,-8.003c1.953,-2.302 4.691,-4.056 8.215,-5.334c3.524,-1.279 7.713,-1.919 12.525,-1.919c3.565,0 7.209,0.384 10.935,1.133c3.725,0.767 6.826,1.809 9.303,3.142l-4.934,8.679c-2.477,-1.334 -5.034,-2.266 -7.652,-2.777c-2.617,-0.512 -5.195,-0.786 -7.752,-0.786c-3.766,0 -6.585,0.512 -8.458,1.517c-1.872,1.004 -2.819,2.302 -2.819,3.873c0,1.462 0.604,2.558 1.812,3.289c1.209,0.73 2.779,1.297 4.733,1.699c1.953,0.402 4.107,0.767 6.484,1.096c2.376,0.329 4.752,0.767 7.108,1.279c2.356,0.511 4.51,1.242 6.484,2.192c1.973,0.95 3.584,2.266 4.792,3.965c1.209,1.699 1.813,3.928 1.813,6.669c-0,3.106 -0.987,5.773 -2.981,7.984c-1.973,2.229 -4.772,3.965 -8.356,5.207c-3.585,1.279 -7.894,1.9 -12.928,1.9Z" style="fill:#2c64e3;fill-rule:nonzero;stroke:#2c64e3;stroke-width:3.26px;"/></g></svg>